<svg width="16" height="16" viewBox="0 0 16 16" fill="none" xmlns="http://www.w3.org/2000/svg">
<path d="M1.49111 14.0849C2.48366 15.0775 3.78699 15.5737 5.09075 15.5735C6.39428 15.5735 7.69814 15.0772 8.6905 14.0849L14.9367 7.83871C16.3545 6.42091 16.3544 4.11407 14.9366 2.69632C14.2499 2.0095 13.3368 1.63128 12.3655 1.63128C11.3942 1.63128 10.4811 2.0095 9.79427 2.69632L4.06223 8.42826C3.21159 9.2789 3.21159 10.663 4.06223 11.5137C4.91297 12.3644 6.29712 12.3643 7.14776 11.5136L10.9222 7.73922C11.2062 7.4552 11.2062 6.99475 10.9222 6.71074C10.6382 6.42672 10.1777 6.42672 9.89371 6.71074L6.11928 10.4852C5.83575 10.7688 5.37433 10.7688 5.09071 10.4852C4.80718 10.2016 4.80718 9.74022 5.09071 9.45669L10.8228 3.72479C11.2349 3.31273 11.7827 3.08578 12.3655 3.08578C12.9483 3.08578 13.4961 3.31273 13.9081 3.72479C14.7588 4.57548 14.7589 5.95959 13.9082 6.81028L7.66202 13.0564C6.24417 14.4741 3.93729 14.4741 2.51958 13.0564C1.83277 12.3696 1.4545 11.4565 1.4545 10.4852C1.4545 9.51395 1.83277 8.60077 2.51958 7.91395L8.7657 1.66774C9.04967 1.38373 9.04967 0.92323 8.7657 0.639263C8.48173 0.355296 8.02124 0.355247 7.73722 0.639263L1.49111 6.88547C0.529584 7.847 0 9.12541 0 10.4852C0 11.845 0.529584 13.1234 1.49111 14.0849Z" fill="#FF3A00"/>
</svg>
