<svg width="64" height="43" viewBox="0 0 64 43" fill="none" xmlns="http://www.w3.org/2000/svg">
<path d="M42.3371 43H0V0H42.3371V14.713H40.3745V1.99333H1.96261V41.0065H40.3745V28.192H42.3371V43Z" fill="white"/>
<path d="M8.65002 17.0835H10.6163V20.8907L13.4308 17.0835H15.7904L12.5582 21.1154L16.0485 25.8213H13.5538L10.6163 21.6646V25.8213H8.65002V17.0835Z" fill="white"/>
<path d="M21.1773 24.0199C22.7633 24.0199 23.586 22.8816 23.586 21.4524C23.586 19.9022 22.5247 18.8849 21.1773 18.8849C19.794 18.8849 18.7686 19.9022 18.7686 21.4524C18.7686 22.9058 19.8418 24.0199 21.1773 24.0199ZM21.1773 17.0684C23.717 17.0684 25.6131 18.7517 25.6131 21.4524C25.6131 24.0199 23.717 25.8366 21.1773 25.8366C18.6375 25.8366 16.7415 24.1531 16.7415 21.4524C16.7415 18.994 18.5182 17.0684 21.1773 17.0684Z" fill="white"/>
<path d="M33.8839 25.8214L29.8038 20.5785V25.8214H27.9602V17.0859H29.5332L33.6136 22.3513L33.611 17.0863H35.4544L35.4571 25.8214H33.8839Z" fill="white"/>
<path d="M37.8237 17.0835H44.9518V18.9559H42.3709V25.8213H40.4045V18.9559H37.8237V17.0835Z" fill="white"/>
<path d="M54.4924 22.0628C54.4924 24.7342 52.821 25.8202 50.9776 25.8202C48.7655 25.8202 47.2291 24.5343 47.2291 21.9756V17.0872H49.1956V21.5511C49.1956 22.9117 49.6012 23.9478 50.9776 23.9478C52.1697 23.9478 52.5261 23.0616 52.5261 21.6634V17.0872H54.4924V22.0628Z" fill="white"/>
<path d="M58.8218 18.9847V20.9192H59.5344C60.2843 20.9192 60.8741 20.6448 60.8741 19.9083C60.8741 19.4215 60.6297 18.9826 59.6833 18.9826C59.3884 18.9826 59.2274 18.9721 58.8218 18.9847ZM56.8553 25.8202V17.0872C57.3346 17.0872 59.5344 17.0872 59.7803 17.0872C62.1277 17.0872 62.9634 18.2732 62.9634 19.8834C62.9634 21.5061 61.9803 22.1676 61.5132 22.4048L63.9999 25.8202H61.6156L59.5468 22.7917H58.8218V25.8202H56.8553Z" fill="white"/>
</svg>
