<svg width="218" height="34" viewBox="0 0 218 34" fill="none" xmlns="http://www.w3.org/2000/svg">
<path fill-rule="evenodd" clip-rule="evenodd" d="M17.5051 0C26.633 0 34.0326 7.5152 34.0326 16.7857C34.0326 26.0562 26.633 33.5714 17.5051 33.5714C8.37724 33.5714 0.977661 26.0562 0.977661 16.7857C0.977661 11.0947 3.7662 6.06606 8.03123 3.03061C8.04296 3.02224 8.05568 3.01392 8.06745 3.0056C8.10171 2.98138 8.1367 2.95799 8.17111 2.93402C8.91819 2.41375 9.7093 1.95249 10.5378 1.56046C12.6548 0.558619 15.0154 0 17.5051 0Z" fill="black"/>
<path fill-rule="evenodd" clip-rule="evenodd" d="M15.2201 10.1675C14.2794 11.4122 13.8161 12.5865 13.7204 13.8316C13.661 14.6081 13.5622 16.7377 13.6948 17.4401C14.0094 19.1019 16.0215 19.2792 16.946 18.1984C17.6434 17.3837 17.1835 16.0801 17.339 14.5176C17.6643 11.2496 21.0978 10.1163 23.2986 11.637C25.1997 12.9508 24.957 15.1778 24.9607 17.0264C24.9643 18.7702 25.023 29.9825 24.9715 31.7647L24.9937 31.7533L25.1607 31.6657L25.2574 31.6141L25.5728 31.4392L25.8913 31.2519L26.1266 31.1091L26.2942 31.0037L26.4367 30.9119L26.6201 30.7901L26.7303 30.7154L26.8003 30.6672L26.8625 30.6239L27.0715 30.4753L27.1858 30.3922L27.3573 30.2643L27.4741 30.1753L27.5346 30.1286L27.6848 30.0105L28.1011 29.6684L28.2951 29.5011L28.3959 29.412L28.4734 29.3426L28.4952 29.3228C28.4669 28.0108 28.681 15.6093 28.2107 12.6486C27.4683 8.54593 22.4856 6.29698 18.721 7.61893C17.4525 8.06434 16.1542 8.93101 15.2201 10.1675Z" fill="white" stroke="white" stroke-width="0.0762" stroke-miterlimit="22.9256"/>
<path fill-rule="evenodd" clip-rule="evenodd" d="M21.4007 21.6601C22.3507 20.4032 22.8185 19.2174 22.9151 17.96C22.9751 17.1759 23.0749 15.0255 22.9409 14.3161C22.6232 12.638 20.5914 12.459 19.6578 13.5503C18.9537 14.3731 19.4181 15.6895 19.261 17.2673C18.9324 20.5674 15.4653 21.7118 13.2428 20.1762C11.3231 18.8494 11.5682 16.6006 11.5645 14.7339C11.5608 12.973 11.4988 2.92194 11.5508 1.12227L11.338 1.20751L11.3053 1.22036L11.1279 1.29509L10.907 1.39096L10.7433 1.46446L10.6485 1.5081L10.4425 1.60536L10.3692 1.64088L10.2812 1.68402L10.2201 1.71432L10.1447 1.75232L10.0565 1.79725L10.0147 1.81881L9.85708 1.90137L9.72094 1.97486L9.67536 1.9993L9.60536 2.0379L9.52564 2.08234L9.47304 2.11202L9.42239 2.14078L9.35367 2.18022L9.25886 2.23533L9.17373 2.28558L9.09224 2.33424L9.0165 2.38011L8.94309 2.42507L8.90751 2.4471L8.85754 2.47822L8.77489 2.53016L8.67125 2.59625L8.57274 2.66023L8.53315 2.68616L8.47602 2.72421L8.46095 2.73395L8.45482 2.73802L8.44107 2.74718L8.1807 2.92733L8.09165 2.98883L7.99601 3.05484C8.02465 4.37972 7.80773 16.1649 8.28263 19.1546C9.03225 23.2976 14.0639 25.5686 17.8654 24.2337C19.1464 23.7839 20.4574 22.9087 21.4007 21.6601Z" fill="white"/>
<path d="M26.5086 22.664H26.9052V24.5537H26.4842V22.664H26.5086Z" fill="black"/>
<path d="M26.5079 25.6355H26.9045V27.553H26.4835V25.6355H26.5079Z" fill="black"/>
<path d="M26.4993 28.6222H26.8958V30.2649L26.4749 30.5623V28.6222H26.4993Z" fill="black"/>
<path d="M26.5124 19.6964H26.9089V21.6139H26.4879V19.6964H26.5124Z" fill="black"/>
<path d="M26.5117 16.7061H26.9082V18.6235H26.4872V16.7061H26.5117Z" fill="black"/>
<path d="M26.4944 13.7226L26.8906 13.7101C26.9107 14.3488 26.9302 14.9876 26.9492 15.6264L26.5286 15.6397L26.47 13.7233L26.4944 13.7226Z" fill="black"/>
<path d="M15.2765 16.7501L15.6738 16.7375C15.6738 17.3763 15.6747 18.0151 15.6754 18.6539L15.2545 18.6672C15.2538 18.0284 15.2528 17.3896 15.2528 16.7508L15.2765 16.7501Z" fill="black"/>
<path d="M15.3377 13.7627L15.7343 13.7736C15.7105 14.4123 15.6872 15.0512 15.6643 15.69L15.2437 15.6785C15.2669 15.0397 15.2901 14.4009 15.3137 13.7621L15.3377 13.7627Z" fill="black"/>
<path d="M15.9471 12.7987L15.5885 12.6495L15.5983 12.6263C15.7444 12.2831 15.8758 12.0157 16.0277 11.7612C16.1797 11.5065 16.3521 11.265 16.5802 10.9737L16.5958 10.9538L16.91 11.2209L16.8938 11.2399C16.8929 11.241 16.57 11.6133 16.4299 11.8857C16.2916 12.1546 15.979 12.7851 15.9781 12.7869L15.968 12.8074L15.9471 12.7987Z" fill="black"/>
<path d="M17.6124 10.4964L17.3726 10.1871L17.3925 10.1718C17.6861 9.94627 17.9301 9.77929 18.1858 9.63379C18.4413 9.48837 18.7085 9.36448 19.0487 9.22507L19.0718 9.21561L19.2158 9.6054L19.1921 9.6137C19.1908 9.61414 18.7297 9.77638 18.4755 9.94346C18.1387 10.1648 17.6467 10.5006 17.645 10.5017L17.6263 10.5143L17.6124 10.4964Z" fill="black"/>
<path d="M20.17 9.33564L20.1048 8.94754L20.1295 8.94377C20.4932 8.88818 20.786 8.85987 21.0795 8.85617C21.3729 8.85244 21.6658 8.87321 22.0297 8.91573L22.0546 8.91863L21.9977 9.33073L21.9733 9.32681C21.9719 9.32661 21.4903 9.24536 21.1882 9.26876C20.8611 9.29409 20.1981 9.35606 20.1961 9.35621L20.1737 9.3582L20.17 9.33564Z" fill="black"/>
<path d="M22.982 9.55877L23.12 9.19088L23.1431 9.20032C23.4847 9.34028 23.7511 9.46703 24.0053 9.61491C24.2596 9.76287 24.5015 9.93196 24.794 10.1566L24.814 10.1719L24.5589 10.4975L24.5397 10.4815C24.5386 10.4806 24.1642 10.162 23.8927 10.0265C23.6201 9.89048 22.9962 9.59086 22.9944 9.59L22.974 9.58019L22.982 9.55877Z" fill="black"/>
<path d="M25.295 11.1699L25.5917 10.9167L25.6074 10.9364C25.8389 11.2275 26.011 11.4698 26.1622 11.7245C26.3135 11.9794 26.4439 12.2467 26.5919 12.5874L26.602 12.6107L26.2231 12.7691L26.214 12.7455C26.2136 12.7442 26.0391 12.281 25.8666 12.0284C25.6949 11.7768 25.2919 11.2049 25.2908 11.2033L25.2777 11.1847L25.295 11.1699Z" fill="black"/>
<path d="M10.0837 9.46088H9.68718V7.57114H10.1082V9.46088H10.0837Z" fill="black"/>
<path d="M10.0844 6.48936H9.68788V4.57189H10.1089V6.48936H10.0844Z" fill="black"/>
<path d="M10.1103 3.82416H9.71378V2.26593L10.1348 2.04607V3.82416H10.1103Z" fill="black"/>
<path d="M10.08 12.4284H9.68346V10.5109H10.1044V12.4284H10.08Z" fill="black"/>
<path d="M10.0804 15.4188H9.68391V13.5013H10.1049V15.4188H10.0804Z" fill="black"/>
<path d="M10.0979 18.4023L9.70178 18.4148C9.68165 17.7761 9.66216 17.1372 9.64311 16.4985L10.0637 16.4852L10.1224 18.4015L10.0979 18.4023Z" fill="black"/>
<path d="M21.3158 15.3748L20.9185 15.3874C20.9185 14.7486 20.9176 14.1098 20.9169 13.471L21.3379 13.4577C21.3385 14.0965 21.3395 14.7353 21.3395 15.3741L21.3158 15.3748Z" fill="black"/>
<path d="M21.2547 18.3621L20.8581 18.3513C20.8819 17.7125 20.9052 17.0736 20.9281 16.4348L21.3487 16.4463L21.2787 18.3628L21.2547 18.3621Z" fill="black"/>
<path d="M20.6454 19.3261L21.004 19.4753L20.9942 19.4985C20.848 19.8417 20.7167 20.1091 20.5648 20.3636C20.4128 20.6183 20.2404 20.8598 20.0122 21.1511L19.9966 21.171L19.6825 20.904L19.6987 20.8849C19.6996 20.8838 20.0225 20.5115 20.1626 20.2391C20.3009 19.9702 20.6134 19.3397 20.6144 19.3379L20.6245 19.3175L20.6454 19.3261Z" fill="black"/>
<path d="M18.98 21.6284L19.2197 21.9378L19.1999 21.9531C18.9063 22.1786 18.6623 22.3456 18.4066 22.4911C18.151 22.6365 17.8838 22.7603 17.5436 22.8998L17.5205 22.9093L17.3766 22.5195L17.4002 22.5112C17.4015 22.5107 17.8626 22.3485 18.1169 22.1814C18.4533 21.9603 18.9457 21.6242 18.9473 21.6231L18.9661 21.6105L18.98 21.6284Z" fill="black"/>
<path d="M16.4224 22.7894L16.4876 23.1775L16.4629 23.1813C16.0992 23.2368 15.8063 23.2651 15.5129 23.2689C15.2195 23.2726 14.9266 23.2518 14.5626 23.2093L14.5378 23.2064L14.5947 22.7943L14.6191 22.7982C14.6205 22.7984 15.102 22.8797 15.4042 22.8563C15.7312 22.8309 16.3943 22.769 16.3962 22.7688L16.4186 22.7668L16.4224 22.7894Z" fill="black"/>
<path d="M13.6105 22.566L13.4725 22.9339L13.4494 22.9245C13.1078 22.7845 12.8414 22.6578 12.5872 22.5099C12.3329 22.3619 12.091 22.1928 11.7985 21.9682L11.7785 21.9529L12.0336 21.6273L12.0528 21.6433C12.0539 21.6442 12.4283 21.9628 12.6998 22.0983C12.9724 22.2343 13.5963 22.5339 13.5981 22.5348L13.6185 22.5446L13.6105 22.566Z" fill="black"/>
<path d="M11.2974 20.9549L11.0006 21.2081L10.9849 21.1884C10.7535 20.8974 10.5814 20.655 10.4302 20.4003C10.2789 20.1454 10.1485 19.8782 10.0004 19.5374L9.99037 19.5142L10.3693 19.3557L10.3783 19.3793C10.3788 19.3806 10.5533 19.8438 10.7257 20.0964C10.8974 20.348 11.3004 20.9199 11.3016 20.9215L11.3147 20.9402L11.2974 20.9549Z" fill="black"/>
<path d="M200.926 1.2571C202.017 1.04775 203.058 1.03645 203.766 1.03645H208.343C209.05 1.03645 210.092 1.04775 211.183 1.2571C212.306 1.47247 213.464 1.89721 214.344 2.73061L214.346 2.73262C215.32 3.65975 215.837 5.04381 216.109 6.40848C216.373 7.73552 216.407 9.02962 216.407 9.846C216.407 10.5352 216.395 11.4704 216.208 12.4534C216.016 13.4618 215.639 14.5045 214.903 15.3617L214.904 15.3621C214.631 15.6897 214.236 16.0631 213.712 16.3775L213.65 16.414C213.724 16.4432 213.797 16.4738 213.869 16.506C214.357 16.7229 214.822 17.0101 215.208 17.3729C216.095 18.2124 216.581 19.4205 216.843 20.6614C217.096 21.8592 217.141 23.0819 217.141 24.0132C217.141 24.9432 217.129 25.8862 216.947 26.8365C216.761 27.8107 216.398 28.7697 215.693 29.6858L215.689 29.6919C214.801 30.8146 213.748 31.4697 212.643 31.8441H212.641C211.554 32.2122 210.435 32.3043 209.379 32.3043H202.73C201.673 32.3043 200.554 32.2122 199.468 31.8441H199.466C198.361 31.4697 197.308 30.8146 196.42 29.6919L196.416 29.6858C195.711 28.7697 195.348 27.8107 195.161 26.8365C194.979 25.8861 194.968 24.9432 194.968 24.0132C194.968 23.0819 195.013 21.8592 195.266 20.6614C195.528 19.4205 196.014 18.2124 196.901 17.3729C197.286 17.0101 197.752 16.7229 198.239 16.506C198.312 16.4738 198.385 16.4431 198.458 16.4139L198.396 16.3775C197.873 16.0632 197.478 15.6898 197.205 15.3621L197.205 15.3617C196.47 14.5045 196.093 13.4618 195.901 12.4534C195.713 11.4703 195.702 10.5352 195.702 9.846C195.702 9.02962 195.736 7.73557 196 6.40848C196.272 5.04376 196.788 3.6597 197.763 2.73262L197.765 2.73061C198.645 1.89716 199.803 1.47247 200.926 1.2571Z" fill="black"/>
<path d="M109.847 4.42552L109.853 32.2968C108.764 32.2968 107.674 32.2944 106.584 32.2974L106.569 4.43816L95.9501 4.44308L95.9476 4.42638C95.8784 3.98175 95.7506 3.55218 95.5084 3.17135C95.2664 2.79087 94.9097 2.45842 94.3824 2.20726L94.3712 2.202L94.3726 1.42379C103.566 1.42379 112.762 1.40179 121.955 1.42638V1.44595C121.955 1.5371 121.957 1.63173 121.958 1.72291C121.961 1.90541 121.964 2.07483 121.954 2.1818C121.952 2.21265 121.872 2.25739 121.799 2.29887C121.773 2.31322 121.748 2.32725 121.728 2.33982C120.664 2.99163 120.533 3.66634 120.413 4.28357L120.381 4.44539L109.847 4.42552Z" fill="black"/>
<path d="M144.32 4.45243C144.179 4.45362 144.455 4.45511 144.212 4.45511H128.444C128.201 4.45511 128.477 4.45362 128.337 4.45243C128.074 4.4499 127.769 4.44697 127.571 4.64505C127.377 4.83865 127.38 5.11599 127.382 5.41853C127.384 5.57782 127.385 5.36409 127.385 5.54987V32.1017H124.079V5.76203C124.079 5.24569 124.091 4.6934 124.22 4.12897C124.355 3.53846 124.615 2.95849 125.112 2.43668C125.564 1.95898 126.067 1.69483 126.577 1.55008C127.066 1.41104 127.542 1.38675 127.978 1.38675H144.678C145.114 1.38675 145.59 1.41104 146.079 1.55008C146.589 1.69483 147.092 1.95903 147.544 2.43668C148.041 2.95849 148.301 3.53846 148.436 4.12897C148.566 4.6934 148.577 5.24569 148.577 5.76203V32.1017H145.271V5.54987C145.271 5.36461 145.273 5.57776 145.274 5.41905C145.277 5.11636 145.279 4.83885 145.085 4.64505C144.887 4.44697 144.582 4.4499 144.32 4.45243Z" fill="black"/>
<path d="M67.9351 4.66088C67.7952 4.66232 67.9631 4.66356 67.828 4.66356H52.2039C52.0686 4.66356 52.2367 4.66227 52.0968 4.66088C51.8374 4.6584 51.5363 4.65544 51.3414 4.85039C51.1511 5.04089 51.1533 5.31477 51.1558 5.61359C51.1571 5.77133 51.1585 5.5596 51.1585 5.74369V32.0594H47.8732V5.95394C47.8732 5.44209 47.8849 4.89435 48.0131 4.33461C48.1472 3.74875 48.4052 3.17329 48.8983 2.65551C49.3471 2.18153 49.8463 1.91938 50.352 1.77572C50.8377 1.63777 51.309 1.61368 51.7417 1.61368H68.2902C68.7229 1.61368 69.1942 1.63777 69.68 1.77572C70.1855 1.91938 70.6848 2.18153 71.1337 2.65551C71.6266 3.17329 71.8847 3.74875 72.0188 4.33461C72.147 4.89435 72.1587 5.44209 72.1587 5.95394V32.0594H68.8736V5.74369C68.8736 5.56106 68.875 5.77109 68.8763 5.61409C68.8788 5.31512 68.881 5.04109 68.6905 4.85039C68.4956 4.65549 68.1944 4.6584 67.9351 4.66088Z" fill="black"/>
<path d="M163.93 32.2512H160.875V6.16289C159.978 6.96739 158.786 7.99114 158.098 7.99114C157.574 7.99114 157.1 7.76711 156.758 7.405C156.42 7.04804 156.211 6.5573 156.211 6.01774V6.01587L156.213 6.01185C156.218 5.51436 157.33 4.25033 158.6 3.15351V3.1515C159.85 2.07172 161.295 1.08542 162.014 1.08542L162.018 1.08746L162.024 1.08751C164.412 1.11116 164.426 2.74494 164.436 3.8388L164.437 3.93427L164.439 3.9383V32.2512H163.93Z" fill="black"/>
<path d="M176.97 32.2437H173.915L173.915 6.15542C173.018 6.95993 171.826 7.98365 171.139 7.98365C170.615 7.98365 170.141 7.75964 169.798 7.39754C169.46 7.04055 169.251 6.54984 169.251 6.01027V6.00841L169.253 6.00438C169.258 5.50689 170.37 4.24286 171.64 3.14605V3.14403C172.89 2.06425 174.335 1.07796 175.055 1.07796L175.059 1.07997L175.065 1.08002C177.452 1.10364 177.467 2.7373 177.476 3.83123L177.477 3.92678L177.479 3.93083V32.2437H176.97Z" fill="black"/>
<path d="M189.879 32.2437H186.824V6.15542C185.927 6.95993 184.736 7.98365 184.048 7.98365C183.524 7.98365 183.05 7.75964 182.707 7.39754C182.369 7.04055 182.16 6.54984 182.16 6.01027V6.00841L182.162 6.00438C182.167 5.50689 183.28 4.24286 184.549 3.14605V3.14403C185.799 2.06425 187.244 1.07796 187.964 1.07796L187.968 1.07997L187.974 1.08002C190.362 1.10364 190.376 2.7374 190.385 3.83133L190.386 3.92678L190.388 3.93083V32.2437H189.879Z" fill="black"/>
<path d="M76.6062 32.0593H73.4L84.9595 4.70162C85.3131 3.86135 85.7153 3.03831 86.2795 2.40481C86.8862 1.72345 87.6562 1.27737 88.7024 1.27737C89.7508 1.27737 90.5212 1.73542 91.1275 2.42254C91.6895 3.05932 92.0903 3.88038 92.4434 4.6976C96.5224 12.9829 100.333 23.369 104.005 32.0593H100.464L96.8936 23.4876H80.5113L76.9412 32.0593H76.6062Z" fill="black"/>
<path d="M88.0417 5.56388C88.0299 5.59245 88.0207 5.61475 87.9511 5.77731L81.8254 20.4378H95.5795L89.4536 5.77741L89.3634 5.56423V5.56222C89.1678 5.08845 88.8882 4.41143 88.7024 4.41143C88.5166 4.41143 88.2372 5.08815 88.0417 5.56187V5.56388Z" fill="#ECECEC"/>
<path d="M200.669 28.8462C201.185 29.0516 201.859 29.198 202.73 29.198H209.379C210.249 29.198 210.923 29.0516 211.44 28.8462C212.173 28.5545 212.58 28.15 212.775 27.8899L212.781 27.8839C213.09 27.486 213.299 26.8971 213.44 26.2698C213.661 25.2818 213.706 24.2076 213.706 23.581C213.706 23.1222 213.696 22.2057 213.493 21.2732C213.299 20.379 212.928 19.4522 212.219 18.8919L212.219 18.8912C211.897 18.6416 211.442 18.4399 210.937 18.2957C210.379 18.136 209.766 18.0506 209.206 18.0506H202.903C202.342 18.0506 201.73 18.136 201.171 18.2957C200.667 18.4399 200.212 18.6417 199.89 18.8912L199.89 18.8919C199.181 19.4522 198.81 20.3789 198.616 21.2732C198.413 22.2058 198.403 23.1222 198.403 23.581C198.403 24.2075 198.447 25.2817 198.669 26.2697C198.809 26.897 199.019 27.486 199.328 27.8839L199.334 27.8899C199.529 28.15 199.936 28.5545 200.669 28.8462Z" fill="#ECECEC"/>
<path d="M203.701 15.9774C203.124 15.9774 202.362 15.9444 201.602 15.7183C200.807 15.4823 200.033 15.0404 199.495 14.2215L199.494 14.222C199.26 13.8715 199.063 13.4215 198.926 12.7498C198.798 12.1169 198.723 11.2835 198.723 10.1385C198.723 9.55321 198.755 8.57819 198.957 7.58795C199.168 6.55543 199.566 5.51435 200.308 4.865L200.315 4.85743C200.896 4.36932 201.57 4.12718 202.257 4.00793C202.914 3.89396 203.562 3.89391 204.147 3.89391H208.201C209.413 3.89391 210.886 3.89396 212.032 4.85743L212.04 4.865C212.782 5.5144 213.18 6.55548 213.391 7.58795C213.593 8.57819 213.625 9.55321 213.625 10.1385C213.625 11.2835 213.55 12.1169 213.421 12.7498C213.285 13.4172 213.088 13.8672 212.853 14.2199L212.853 14.2202C212.315 15.0399 211.54 15.4821 210.746 15.7183C209.985 15.9444 209.223 15.9774 208.647 15.9774H203.701Z" fill="#ECECEC"/>
</svg>
