<svg width="155" height="24" viewBox="0 0 155 24" fill="none" xmlns="http://www.w3.org/2000/svg">
<path fill-rule="evenodd" clip-rule="evenodd" d="M11.8154 0C18.3409 0 23.6308 5.37257 23.6308 12C23.6308 18.6274 18.3409 24 11.8154 24C5.28991 24 0 18.6274 0 12C0 7.93154 1.99351 4.33659 5.04255 2.16657C5.05094 2.16058 5.06003 2.15463 5.06844 2.14868C5.09294 2.13137 5.11795 2.11465 5.14255 2.09751C5.67664 1.72557 6.24219 1.39583 6.83446 1.11556C8.34791 0.399353 10.0355 0 11.8154 0Z" fill="white"/>
<path fill-rule="evenodd" clip-rule="evenodd" d="M10.1818 7.26871C9.50928 8.15854 9.17809 8.99807 9.10968 9.88818C9.06725 10.4433 8.99656 11.9657 9.09139 12.4678C9.31632 13.6559 10.7548 13.7826 11.4156 13.01C11.9142 12.4275 11.5854 11.4956 11.6966 10.3786C11.9292 8.04229 14.3838 7.23214 15.9571 8.31924C17.3162 9.25852 17.1426 10.8505 17.1453 12.1721C17.1479 13.4188 17.1899 21.4344 17.153 22.7084L17.1689 22.7003L17.2883 22.6377L17.3574 22.6008L17.5829 22.4757L17.8106 22.3419L17.9788 22.2398L18.0986 22.1644L18.2005 22.0988L18.3316 22.0117L18.4104 21.9583L18.4604 21.9238L18.5049 21.8929L18.6543 21.7867L18.736 21.7272L18.8586 21.6358L18.9421 21.5722L18.9854 21.5388L19.0928 21.4544L19.3904 21.2098L19.5291 21.0902L19.6011 21.0265L19.6565 20.9769L19.6721 20.9628C19.6519 20.0248 19.8049 11.159 19.4687 9.04244C18.938 6.10949 15.3759 4.50172 12.6846 5.44678C11.7777 5.7652 10.8496 6.38478 10.1818 7.26871Z" fill="#070707" stroke="white" stroke-width="0.0762" stroke-miterlimit="22.9256"/>
<path fill-rule="evenodd" clip-rule="evenodd" d="M14.6003 15.4846C15.2794 14.5861 15.6139 13.7383 15.683 12.8394C15.7258 12.2789 15.7972 10.7415 15.7014 10.2345C15.4743 9.03477 14.0217 8.9068 13.3543 9.68697C12.8509 10.2752 13.1829 11.2162 13.0707 12.3442C12.8358 14.7035 10.3571 15.5216 8.7683 14.4238C7.39589 13.4753 7.57112 11.8676 7.56848 10.5331C7.56584 9.27423 7.52147 2.08882 7.55869 0.802246L7.40651 0.863184L7.38314 0.872365L7.25632 0.925793L7.09843 0.994331L6.98142 1.04687L6.91362 1.07807L6.76636 1.1476L6.71393 1.17299L6.65104 1.20384L6.60737 1.2255L6.55343 1.25266L6.49037 1.28479L6.46053 1.3002L6.34784 1.35922L6.25051 1.41176L6.21792 1.42923L6.16788 1.45682L6.11089 1.48859L6.07328 1.50981L6.03708 1.53037L5.98795 1.55857L5.92017 1.59797L5.85931 1.63389L5.80106 1.66867L5.74691 1.70147L5.69443 1.73361L5.66899 1.74936L5.63327 1.7716L5.57418 1.80873L5.50009 1.85598L5.42967 1.90172L5.40136 1.92026L5.36052 1.94746L5.34975 1.95442L5.34536 1.95733L5.33554 1.96389L5.1494 2.09267L5.08574 2.13663L5.01737 2.18383C5.03784 3.13098 4.88276 11.5561 5.22227 13.6935C5.75817 16.6552 9.35525 18.2788 12.0729 17.3244C12.9887 17.0029 13.926 16.3772 14.6003 15.4846Z" fill="#070707"/>
<path d="M18.2519 16.2021H18.5354V17.5531H18.2345V16.2021H18.2519Z" fill="white"/>
<path d="M18.2514 18.3267H18.5349V19.6974H18.2339V18.3267H18.2514Z" fill="white"/>
<path d="M18.2453 20.4618H18.5287V21.6362L18.2278 21.8488V20.4618H18.2453Z" fill="white"/>
<path d="M18.2546 14.0807H18.5381V15.4515H18.2371V14.0807H18.2546Z" fill="white"/>
<path d="M18.2541 11.9432H18.5376V13.314H18.2366V11.9432H18.2541Z" fill="white"/>
<path d="M18.2418 9.80996L18.5249 9.80103C18.5394 10.2576 18.5533 10.7144 18.5669 11.171L18.2662 11.1805L18.2243 9.81052L18.2418 9.80996Z" fill="white"/>
<path d="M10.2222 11.9745L10.5062 11.9656C10.5062 12.4222 10.5068 12.8789 10.5073 13.3356L10.2064 13.3451C10.2059 12.8884 10.2052 12.4317 10.2052 11.9751L10.2222 11.9745Z" fill="white"/>
<path d="M10.2659 9.83884L10.5494 9.8466C10.5324 10.3033 10.5158 10.76 10.4994 11.2167L10.1987 11.2084C10.2153 10.7517 10.2319 10.295 10.2487 9.83838L10.2659 9.83884Z" fill="white"/>
<path d="M10.7015 9.1498L10.4451 9.04316L10.4522 9.02659C10.5567 8.7812 10.6505 8.59004 10.7591 8.40811C10.8678 8.22601 10.9911 8.05338 11.1542 7.84515L11.1653 7.83093L11.3899 8.02185L11.3783 8.03548C11.3777 8.03624 11.1468 8.30241 11.0467 8.49712C10.9478 8.68933 10.7244 9.14011 10.7237 9.1414L10.7164 9.15602L10.7015 9.1498Z" fill="white"/>
<path d="M11.892 7.50376L11.7206 7.28262L11.7348 7.2717C11.9447 7.11048 12.1192 6.99111 12.302 6.88709C12.4847 6.78313 12.6757 6.69456 12.9189 6.5949L12.9354 6.58813L13.0383 6.8668L13.0214 6.87273C13.0205 6.87305 12.6908 6.98903 12.5091 7.10847C12.2683 7.26668 11.9166 7.50679 11.9154 7.50758L11.902 7.5166L11.892 7.50376Z" fill="white"/>
<path d="M13.7204 6.67377L13.6739 6.39632L13.6915 6.39362C13.9515 6.35388 14.1609 6.33364 14.3707 6.33099C14.5804 6.32833 14.7898 6.34317 15.05 6.37357L15.0677 6.37565L15.0271 6.67026L15.0096 6.66745C15.0086 6.66731 14.6644 6.60923 14.4484 6.62595C14.2145 6.64406 13.7406 6.68837 13.7392 6.68847L13.7231 6.68989L13.7204 6.67377Z" fill="white"/>
<path d="M15.7307 6.83356L15.8294 6.57056L15.8459 6.57731C16.0901 6.67736 16.2806 6.76797 16.4623 6.87369C16.6441 6.97946 16.817 7.10035 17.0262 7.26092L17.0404 7.27189L16.858 7.50466L16.8443 7.49322C16.8436 7.49258 16.5759 7.26477 16.3818 7.16791C16.1869 7.07069 15.7409 6.8565 15.7396 6.85588L15.725 6.84887L15.7307 6.83356Z" fill="white"/>
<path d="M17.3843 7.98533L17.5964 7.80432L17.6077 7.8184C17.7731 8.02645 17.8962 8.19968 18.0043 8.3818C18.1124 8.56401 18.2057 8.75507 18.3115 8.9987L18.3187 9.01529L18.0478 9.12859L18.0413 9.11172C18.041 9.11078 17.9162 8.77964 17.793 8.59903C17.6702 8.41918 17.3821 8.01034 17.3813 8.00919L17.372 7.99587L17.3843 7.98533Z" fill="white"/>
<path d="M6.50985 6.76368H6.22638V5.41272H6.52733V6.76368H6.50985Z" fill="white"/>
<path d="M6.51033 4.63934H6.22687V3.26855H6.52782V4.63934H6.51033Z" fill="white"/>
<path d="M6.52885 2.73404H6.24538V1.62007L6.54633 1.46289V2.73404H6.52885Z" fill="white"/>
<path d="M6.50718 8.88495H6.22371V7.51416H6.52466V8.88495H6.50718Z" fill="white"/>
<path d="M6.50751 11.0228H6.22404V9.65198H6.525V11.0228H6.50751Z" fill="white"/>
<path d="M6.52016 13.1557L6.23696 13.1646C6.22258 12.708 6.20864 12.2513 6.19502 11.7947L6.4957 11.7852L6.53764 13.1551L6.52016 13.1557Z" fill="white"/>
<path d="M14.5396 10.9915L14.2556 11.0005C14.2556 10.5438 14.2549 10.0871 14.2544 9.63047L14.5554 9.62097C14.5558 10.0776 14.5565 10.5343 14.5565 10.991L14.5396 10.9915Z" fill="white"/>
<path d="M14.4959 13.1269L14.2124 13.1192C14.2294 12.6625 14.246 12.2058 14.2624 11.7491L14.5631 11.7574L14.5131 13.1274L14.4959 13.1269Z" fill="white"/>
<path d="M14.0603 13.8161L14.3167 13.9228L14.3097 13.9393C14.2052 14.1847 14.1113 14.3759 14.0027 14.5578C13.894 14.7399 13.7708 14.9125 13.6077 15.1208L13.5965 15.135L13.3719 14.9441L13.3835 14.9305C13.3842 14.9297 13.615 14.6635 13.7152 14.4688C13.814 14.2766 14.0375 13.8258 14.0381 13.8245L14.0454 13.8099L14.0603 13.8161Z" fill="white"/>
<path d="M12.8697 15.462L13.0411 15.6832L13.0269 15.6941C12.8171 15.8553 12.6426 15.9747 12.4598 16.0787C12.2771 16.1827 12.0861 16.2712 11.8429 16.3709L11.8264 16.3777L11.7235 16.099L11.7404 16.0931C11.7413 16.0928 12.0709 15.9768 12.2527 15.8573C12.4932 15.6993 12.8452 15.459 12.8464 15.4582L12.8598 15.4492L12.8697 15.462Z" fill="white"/>
<path d="M11.0413 16.292L11.0879 16.5695L11.0703 16.5721C10.8103 16.6119 10.6009 16.6321 10.3911 16.6348C10.1814 16.6374 9.97199 16.6226 9.71179 16.5922L9.69403 16.5901L9.7347 16.2955L9.75216 16.2983C9.75314 16.2984 10.0974 16.3565 10.3134 16.3398C10.5472 16.3217 11.0212 16.2774 11.0226 16.2773L11.0386 16.2759L11.0413 16.292Z" fill="white"/>
<path d="M9.03113 16.1322L8.93248 16.3953L8.91599 16.3885C8.67177 16.2884 8.48128 16.1978 8.29958 16.0921C8.11781 15.9863 7.94483 15.8654 7.73572 15.7049L7.72145 15.6939L7.90385 15.4612L7.91754 15.4726C7.91831 15.4732 8.18599 15.701 8.3801 15.7979C8.57493 15.8951 9.02096 16.1093 9.02225 16.1099L9.03688 16.117L9.03113 16.1322Z" fill="white"/>
<path d="M7.37749 14.9805L7.16537 15.1616L7.15415 15.1475C6.9887 14.9394 6.86568 14.7662 6.75756 14.5841C6.6494 14.4018 6.55616 14.2108 6.45033 13.9671L6.44313 13.9506L6.71403 13.8373L6.72048 13.8541C6.72083 13.8551 6.84557 14.1862 6.96884 14.3668C7.09159 14.5467 7.37969 14.9555 7.3805 14.9567L7.38985 14.97L7.37749 14.9805Z" fill="white"/>
<path d="M142.941 0.898713C143.722 0.749047 144.466 0.740967 144.972 0.740967H148.244C148.75 0.740967 149.494 0.749047 150.274 0.898713C151.077 1.05268 151.905 1.35632 152.534 1.95211L152.536 1.95355C153.232 2.61635 153.601 3.60581 153.796 4.5814C153.985 5.53009 154.009 6.45524 154.009 7.03886C154.009 7.53159 154.001 8.20011 153.867 8.90285C153.729 9.62374 153.46 10.3692 152.934 10.982L152.934 10.9823C152.739 11.2165 152.457 11.4834 152.082 11.7082L152.038 11.7343C152.091 11.7551 152.143 11.777 152.195 11.8001C152.543 11.9551 152.876 12.1604 153.151 12.4198C153.786 13.02 154.133 13.8836 154.32 14.7707C154.501 15.627 154.533 16.5011 154.533 17.1669C154.533 17.8318 154.525 18.5059 154.395 19.1853C154.262 19.8817 154.002 20.5673 153.499 21.2222L153.496 21.2265C152.861 22.0292 152.108 22.4975 151.318 22.7652H151.317C150.54 23.0283 149.74 23.0942 148.984 23.0942H144.231C143.476 23.0942 142.676 23.0283 141.899 22.7652H141.898C141.108 22.4975 140.355 22.0292 139.72 21.2265L139.717 21.2222C139.214 20.5673 138.954 19.8817 138.82 19.1853C138.69 18.5058 138.682 17.8318 138.682 17.1669C138.682 16.5011 138.714 15.627 138.895 14.7707C139.083 13.8836 139.43 13.02 140.064 12.4198C140.34 12.1604 140.672 11.9551 141.021 11.8001C141.073 11.777 141.125 11.7551 141.177 11.7342L141.133 11.7082C140.759 11.4835 140.477 11.2166 140.281 10.9823L140.282 10.982C139.756 10.3692 139.487 9.62374 139.349 8.90285C139.215 8.20008 139.207 7.53156 139.207 7.03886C139.207 6.45524 139.231 5.53013 139.42 4.5814C139.614 3.60577 139.984 2.61631 140.68 1.95355L140.682 1.95211C141.311 1.35629 142.139 1.05268 142.941 0.898713Z" fill="white"/>
<path d="M77.8297 3.16374L77.8345 23.0888C77.0555 23.0888 76.2763 23.087 75.4974 23.0892L75.4864 3.17278L67.8952 3.17629L67.8934 3.16436C67.8439 2.84649 67.7525 2.5394 67.5794 2.26715C67.4064 1.99514 67.1514 1.75747 66.7744 1.57793L66.7664 1.57416L66.7674 1.01783C73.3397 1.01783 79.9141 1.0021 86.4861 1.01967V1.03367C86.4861 1.09883 86.4873 1.16648 86.4883 1.23166C86.4905 1.36214 86.4925 1.48325 86.4855 1.55973C86.4836 1.58178 86.4269 1.61376 86.3741 1.64341C86.3559 1.65367 86.3381 1.66371 86.3234 1.67269C85.5631 2.13866 85.4694 2.62101 85.3837 3.06226L85.3608 3.17795L77.8297 3.16374Z" fill="white"/>
<path d="M102.474 3.18297C102.374 3.18382 102.571 3.18489 102.397 3.18489H91.1252C90.9513 3.18489 91.1487 3.18382 91.048 3.18297C90.8603 3.18116 90.6422 3.17906 90.5006 3.32067C90.3623 3.45908 90.364 3.65734 90.3658 3.87363C90.3667 3.9875 90.3677 3.83471 90.3677 3.96752V22.9492H88.0042V4.1192C88.0042 3.75006 88.0126 3.35524 88.105 2.95173C88.2017 2.52958 88.3876 2.11496 88.7428 1.74192C89.0662 1.40042 89.4258 1.21158 89.7901 1.1081C90.1401 1.0087 90.4798 0.991333 90.7918 0.991333H102.73C103.042 0.991333 103.382 1.0087 103.732 1.1081C104.096 1.21158 104.456 1.40045 104.779 1.74192C105.135 2.11496 105.321 2.52958 105.417 2.95173C105.51 3.35524 105.518 3.75006 105.518 4.1192V22.9492H103.155V3.96752C103.155 3.83508 103.156 3.98746 103.157 3.874C103.158 3.65761 103.16 3.45922 103.022 3.32067C102.88 3.17906 102.662 3.18116 102.474 3.18297Z" fill="white"/>
<path d="M47.8674 3.33187C47.7674 3.3329 47.8874 3.33379 47.7908 3.33379H36.6213C36.5246 3.33379 36.6447 3.33286 36.5447 3.33187C36.3593 3.33009 36.144 3.32798 36.0047 3.46735C35.8686 3.60354 35.8702 3.79933 35.872 4.01296C35.8729 4.12573 35.8739 3.97436 35.8739 4.10596V22.9189H33.5253V4.25627C33.5253 3.89035 33.5336 3.49878 33.6253 3.09862C33.7212 2.67979 33.9056 2.2684 34.2581 1.89824C34.579 1.5594 34.9359 1.37198 35.2973 1.26928C35.6446 1.17067 35.9815 1.15344 36.2909 1.15344H48.1212C48.4306 1.15344 48.7676 1.17067 49.1148 1.26928C49.4762 1.37198 49.8332 1.5594 50.1541 1.89824C50.5065 2.2684 50.6909 2.67979 50.7868 3.09862C50.8785 3.49878 50.8869 3.89035 50.8869 4.25627V22.9189H48.5384V4.10596C48.5384 3.9754 48.5393 4.12555 48.5403 4.01331C48.542 3.79958 48.5437 3.60368 48.4075 3.46735C48.2681 3.32802 48.0528 3.33009 47.8674 3.33187Z" fill="white"/>
<path d="M116.494 23.0562H114.309V4.40585C113.668 4.98098 112.816 5.71286 112.325 5.71286C111.95 5.71286 111.611 5.55269 111.366 5.29383C111.125 5.03864 110.975 4.68781 110.975 4.30208V4.30075L110.977 4.29787C110.98 3.94222 111.775 3.03857 112.683 2.25446V2.25303C113.577 1.4811 114.61 0.776001 115.124 0.776001L115.127 0.777458L115.131 0.777494C116.838 0.794398 116.848 1.96238 116.855 2.74437L116.856 2.81263L116.857 2.8155V23.0562H116.494Z" fill="white"/>
<path d="M125.816 23.0508H123.632L123.632 4.40047C122.99 4.97561 122.139 5.70747 121.647 5.70747C121.272 5.70747 120.934 5.54732 120.689 5.28846C120.447 5.03325 120.298 4.68244 120.298 4.29671V4.29538L120.299 4.2925C120.303 3.93684 121.098 3.0332 122.006 2.24909V2.24765C122.899 1.47572 123.932 0.77063 124.447 0.77063L124.449 0.772067L124.454 0.772102C126.161 0.788988 126.171 1.95688 126.178 2.73893L126.178 2.80724L126.18 2.81013V23.0508H125.816Z" fill="white"/>
<path d="M135.045 23.0508H132.861V4.40047C132.219 4.97561 131.368 5.70747 130.876 5.70747C130.501 5.70747 130.162 5.54732 129.917 5.28846C129.676 5.03325 129.526 4.68244 129.526 4.29671V4.29538L129.528 4.2925C129.531 3.93684 130.327 3.0332 131.234 2.24909V2.24765C132.128 1.47572 133.161 0.77063 133.675 0.77063L133.678 0.772067L133.682 0.772102C135.39 0.788988 135.4 1.95695 135.406 2.739L135.407 2.80724L135.408 2.81013V23.0508H135.045Z" fill="white"/>
<path d="M54.0664 22.9191H51.7742L60.038 3.36131C60.2909 2.7606 60.5784 2.17222 60.9817 1.71933C61.4155 1.23223 61.9659 0.91333 62.7139 0.91333C63.4633 0.91333 64.0141 1.24079 64.4476 1.73201C64.8493 2.18724 65.1358 2.7742 65.3883 3.35843C68.3043 9.28155 71.0285 16.7065 73.6537 22.9191H71.122L68.5697 16.7913H56.8581L54.3058 22.9191H54.0664Z" fill="white"/>
<path d="M62.2415 3.97745C62.2331 3.99787 62.2265 4.01381 62.1768 4.13003L57.7975 14.6107H67.6302L63.2509 4.1301L63.1864 3.9777V3.97626C63.0466 3.63756 62.8467 3.15356 62.7138 3.15356C62.5811 3.15356 62.3813 3.63735 62.2415 3.97601V3.97745Z" fill="#0D0D0D"/>
<path d="M142.758 20.622C143.127 20.7689 143.609 20.8735 144.231 20.8735H148.984C149.607 20.8735 150.089 20.7688 150.458 20.622C150.982 20.4135 151.273 20.1243 151.412 19.9384L151.417 19.9341C151.638 19.6496 151.787 19.2286 151.888 18.7802C152.046 18.0739 152.078 17.3059 152.078 16.858C152.078 16.53 152.07 15.8748 151.926 15.2082C151.787 14.5688 151.522 13.9063 151.015 13.5057L151.015 13.5052C150.785 13.3268 150.459 13.1826 150.099 13.0795C149.699 12.9653 149.262 12.9043 148.861 12.9043H144.355C143.954 12.9043 143.516 12.9653 143.117 13.0795C142.756 13.1826 142.431 13.3269 142.201 13.5052L142.201 13.5057C141.694 13.9063 141.429 14.5688 141.29 15.2082C141.145 15.8748 141.138 16.53 141.138 16.858C141.138 17.3058 141.17 18.0738 141.328 18.7801C141.428 19.2285 141.578 19.6496 141.799 19.9341L141.803 19.9384C141.943 20.1243 142.234 20.4135 142.758 20.622Z" fill="#0D0D0D"/>
<path d="M144.925 11.4221C144.513 11.4221 143.969 11.3985 143.425 11.2369C142.857 11.0681 142.304 10.7523 141.919 10.1668L141.918 10.1672C141.751 9.91661 141.61 9.59494 141.512 9.11471C141.42 8.66228 141.367 8.06649 141.367 7.24788C141.367 6.82949 141.389 6.13246 141.534 5.42454C141.685 4.6864 141.969 3.94214 142.5 3.47792L142.505 3.47251C142.92 3.12356 143.402 2.95046 143.893 2.86521C144.363 2.78373 144.826 2.78369 145.244 2.78369H148.142C149.009 2.78369 150.062 2.78373 150.882 3.47251L150.887 3.47792C151.417 3.94217 151.702 4.68644 151.853 5.42454C151.997 6.13246 152.02 6.82949 152.02 7.24788C152.02 8.06649 151.966 8.66224 151.874 9.11471C151.777 9.59181 151.636 9.91356 151.468 10.1657L151.469 10.1659C151.084 10.7519 150.53 11.068 149.962 11.2369C149.418 11.3985 148.874 11.4221 148.461 11.4221H144.925Z" fill="#0D0D0D"/>
</svg>
